<svg width="16" height="17" viewBox="0 0 16 17" fill="none" xmlns="http://www.w3.org/2000/svg">
<path fill-rule="evenodd" clip-rule="evenodd" d="M4.79998 2.10001C4.5878 2.10001 4.38432 2.18429 4.23429 2.33432C4.08426 2.48435 3.99998 2.68783 3.99998 2.90001V3.70001H3.19998C2.77563 3.70001 2.36866 3.86858 2.0686 4.16864C1.76855 4.46869 1.59998 4.87566 1.59998 5.30001V13.3C1.59998 13.7244 1.76855 14.1313 2.0686 14.4314C2.36866 14.7314 2.77563 14.9 3.19998 14.9H12.8C13.2243 14.9 13.6313 14.7314 13.9313 14.4314C14.2314 14.1313 14.4 13.7244 14.4 13.3V5.30001C14.4 4.87566 14.2314 4.46869 13.9313 4.16864C13.6313 3.86858 13.2243 3.70001 12.8 3.70001H12V2.90001C12 2.68783 11.9157 2.48435 11.7657 2.33432C11.6156 2.18429 11.4121 2.10001 11.2 2.10001C10.9878 2.10001 10.7843 2.18429 10.6343 2.33432C10.4843 2.48435 10.4 2.68783 10.4 2.90001V3.70001H5.59998V2.90001C5.59998 2.68783 5.51569 2.48435 5.36566 2.33432C5.21563 2.18429 5.01215 2.10001 4.79998 2.10001ZM4.79998 6.10001C4.5878 6.10001 4.38432 6.18429 4.23429 6.33432C4.08426 6.48435 3.99998 6.68783 3.99998 6.90001C3.99998 7.11218 4.08426 7.31566 4.23429 7.46569C4.38432 7.61572 4.5878 7.70001 4.79998 7.70001H11.2C11.4121 7.70001 11.6156 7.61572 11.7657 7.46569C11.9157 7.31566 12 7.11218 12 6.90001C12 6.68783 11.9157 6.48435 11.7657 6.33432C11.6156 6.18429 11.4121 6.10001 11.2 6.10001H4.79998Z" fill="#CAD8DF"/>
</svg>
