<svg width="18" height="18" viewBox="0 0 18 18" fill="none" xmlns="http://www.w3.org/2000/svg">
<path d="M1.79999 4.49995C1.79999 4.02256 1.98963 3.56472 2.3272 3.22716C2.66476 2.88959 3.1226 2.69995 3.59999 2.69995H9.89999C10.3774 2.69995 10.8352 2.88959 11.1728 3.22716C11.5103 3.56472 11.7 4.02256 11.7 4.49995V8.09995C11.7 8.57734 11.5103 9.03518 11.1728 9.37274C10.8352 9.71031 10.3774 9.89995 9.89999 9.89995H8.09999L5.39999 12.6V9.89995H3.59999C3.1226 9.89995 2.66476 9.71031 2.3272 9.37274C1.98963 9.03518 1.79999 8.57734 1.79999 8.09995V4.49995Z" fill="#B4C8CF"/>
<path d="M13.5 6.30005V8.10005C13.5 9.05483 13.1207 9.9705 12.4456 10.6456C11.7705 11.3208 10.8548 11.7 9.9 11.7H8.8452L7.2558 13.2903C7.5078 13.4244 7.7949 13.5 8.1 13.5H9.9L12.6 16.2V13.5H14.4C14.8774 13.5 15.3352 13.3104 15.6728 12.9728C16.0104 12.6353 16.2 12.1774 16.2 11.7V8.10005C16.2 7.62266 16.0104 7.16482 15.6728 6.82726C15.3352 6.48969 14.8774 6.30005 14.4 6.30005H13.5Z" fill="#B4C8CF"/>
</svg>
