<svg width="19" height="18" viewBox="0 0 19 18" fill="none" xmlns="http://www.w3.org/2000/svg">
<path fill-rule="evenodd" clip-rule="evenodd" d="M7.0638 13.2363C6.89508 13.0675 6.80029 12.8386 6.80029 12.6C6.80029 12.3613 6.89508 12.1325 7.0638 11.9637L10.0275 8.99999L7.0638 6.03629C6.89986 5.86655 6.80914 5.6392 6.81119 5.40323C6.81324 5.16725 6.9079 4.94152 7.07476 4.77465C7.24163 4.60778 7.46736 4.51313 7.70334 4.51108C7.93932 4.50903 8.16666 4.59975 8.3364 4.76369L11.9364 8.36369C12.1051 8.53246 12.1999 8.76134 12.1999 8.99999C12.1999 9.23864 12.1051 9.46751 11.9364 9.63629L8.3364 13.2363C8.16763 13.405 7.93875 13.4998 7.7001 13.4998C7.46145 13.4998 7.23258 13.405 7.0638 13.2363Z" fill="white"/>
</svg>
