<svg width="18" height="19" viewBox="0 0 18 19" fill="none" xmlns="http://www.w3.org/2000/svg">
<g clip-path="url(#clip0_105_505)">
<path d="M9 0.5C6.55762 0.5 6.2505 0.51125 5.29087 0.554C4.33125 0.599 3.67762 0.74975 3.105 0.9725C2.50407 1.19787 1.95991 1.55232 1.51088 2.01088C1.05232 2.45991 0.697866 3.00407 0.4725 3.605C0.24975 4.1765 0.097875 4.83125 0.054 5.7875C0.01125 6.74937 0 7.05538 0 9.50113C0 11.9446 0.01125 12.2506 0.054 13.2103C0.099 14.1688 0.24975 14.8224 0.4725 15.395C0.703125 15.9867 1.01025 16.4885 1.51088 16.9891C2.01038 17.4897 2.51213 17.798 3.10388 18.0275C3.67763 18.2502 4.33013 18.4021 5.28863 18.446C6.24938 18.4888 6.55538 18.5 9 18.5C11.4446 18.5 11.7495 18.4888 12.7103 18.446C13.6676 18.401 14.3235 18.2502 14.8961 18.0275C15.4966 17.802 16.0404 17.4475 16.4891 16.9891C16.9897 16.4885 17.2969 15.9867 17.5275 15.395C17.7491 14.8224 17.901 14.1688 17.946 13.2103C17.9888 12.2506 18 11.9446 18 9.5C18 7.05538 17.9888 6.74938 17.946 5.78863C17.901 4.83125 17.7491 4.1765 17.5275 3.605C17.3021 3.00407 16.9477 2.45991 16.4891 2.01088C16.0401 1.55232 15.4959 1.19787 14.895 0.9725C14.3212 0.74975 13.6665 0.597875 12.7091 0.554C11.7484 0.51125 11.4435 0.5 8.99775 0.5H9ZM8.19337 2.12225H9.00113C11.4041 2.12225 11.6887 2.13013 12.6371 2.174C13.5146 2.21338 13.9916 2.36075 14.3089 2.48338C14.7285 2.6465 15.0289 2.84225 15.3439 3.15725C15.6589 3.47225 15.8535 3.7715 16.0166 4.19225C16.1404 4.50838 16.2866 4.98538 16.326 5.86287C16.3699 6.81125 16.3789 7.09588 16.3789 9.49775C16.3789 11.8996 16.3699 12.1854 16.326 13.1337C16.2866 14.0112 16.1392 14.4871 16.0166 14.8044C15.8713 15.1946 15.6411 15.5478 15.3427 15.8383C15.0277 16.1532 14.7285 16.3479 14.3078 16.511C13.9928 16.6348 13.5157 16.781 12.6371 16.8215C11.6887 16.8643 11.4041 16.8744 9.00113 16.8744C6.59813 16.8744 6.31238 16.8643 5.364 16.8215C4.4865 16.781 4.01062 16.6348 3.69338 16.511C3.30281 16.3662 2.9493 16.1364 2.65837 15.8383C2.35943 15.5476 2.12887 15.194 1.98338 14.8032C1.86075 14.4871 1.71338 14.0101 1.674 13.1326C1.63125 12.1842 1.62225 11.8996 1.62225 9.4955C1.62225 7.09137 1.63125 6.809 1.674 5.86062C1.7145 4.98312 1.86075 4.50612 1.9845 4.18887C2.14762 3.76925 2.34337 3.46887 2.65837 3.15387C2.97337 2.83888 3.27262 2.64425 3.69338 2.48112C4.01062 2.35738 4.4865 2.21113 5.364 2.17062C6.19425 2.13238 6.516 2.12113 8.19337 2.12V2.12225ZM13.8049 3.61625C13.663 3.61625 13.5226 3.64419 13.3916 3.69846C13.2605 3.75274 13.1415 3.83229 13.0412 3.93257C12.9409 4.03286 12.8614 4.15192 12.8071 4.28295C12.7528 4.41398 12.7249 4.55442 12.7249 4.69625C12.7249 4.83808 12.7528 4.97852 12.8071 5.10955C12.8614 5.24058 12.9409 5.35964 13.0412 5.45993C13.1415 5.56021 13.2605 5.63976 13.3916 5.69404C13.5226 5.74831 13.663 5.77625 13.8049 5.77625C14.0913 5.77625 14.366 5.66246 14.5686 5.45993C14.7711 5.25739 14.8849 4.98268 14.8849 4.69625C14.8849 4.40982 14.7711 4.13511 14.5686 3.93257C14.366 3.73004 14.0913 3.61625 13.8049 3.61625ZM9.00113 4.8785C8.38808 4.86894 7.77926 4.98142 7.2101 5.20941C6.64094 5.4374 6.12283 5.77633 5.68592 6.20648C5.24901 6.63662 4.90203 7.14939 4.6652 7.71492C4.42836 8.28045 4.30639 8.88744 4.30639 9.50056C4.30639 10.1137 4.42836 10.7207 4.6652 11.2862C4.90203 11.8517 5.24901 12.3645 5.68592 12.7946C6.12283 13.2248 6.64094 13.5637 7.2101 13.7917C7.77926 14.0197 8.38808 14.1322 9.00113 14.1226C10.2145 14.1037 11.3717 13.6084 12.2231 12.7437C13.0745 11.8789 13.5516 10.7141 13.5516 9.50056C13.5516 8.28706 13.0745 7.12221 12.2231 6.25747C11.3717 5.39272 10.2145 4.89743 9.00113 4.8785ZM9.00113 6.49963C9.39514 6.49963 9.7853 6.57723 10.1493 6.72801C10.5133 6.8788 10.8441 7.0998 11.1227 7.37841C11.4013 7.65702 11.6223 7.98778 11.7731 8.35181C11.9239 8.71583 12.0015 9.10598 12.0015 9.5C12.0015 9.89402 11.9239 10.2842 11.7731 10.6482C11.6223 11.0122 11.4013 11.343 11.1227 11.6216C10.8441 11.9002 10.5133 12.1212 10.1493 12.272C9.7853 12.4228 9.39514 12.5004 9.00113 12.5004C8.20538 12.5004 7.44222 12.1843 6.87954 11.6216C6.31686 11.0589 6.00075 10.2957 6.00075 9.5C6.00075 8.70425 6.31686 7.94109 6.87954 7.37841C7.44222 6.81573 8.20538 6.49963 9.00113 6.49963Z" fill="white"/>
</g>
<defs>
<clipPath id="clip0_105_505">
<rect width="18" height="18" fill="white" transform="translate(0 0.5)"/>
</clipPath>
</defs>
</svg>
