<svg width="6" height="10" viewBox="0 0 6 10" fill="none" xmlns="http://www.w3.org/2000/svg">
<path fill-rule="evenodd" clip-rule="evenodd" d="M5.43628 0.769123C5.605 0.937898 5.69979 1.16678 5.69979 1.40542C5.69979 1.64407 5.605 1.87295 5.43628 2.04172L2.47258 5.00542L5.43628 7.96912C5.60022 8.13887 5.69094 8.36621 5.68888 8.60218C5.68683 8.83816 5.59218 9.06389 5.42532 9.23076C5.25845 9.39763 5.03272 9.49228 4.79674 9.49433C4.56076 9.49638 4.33342 9.40567 4.16368 9.24172L0.563679 5.64172C0.394955 5.47295 0.300171 5.24407 0.300171 5.00542C0.300171 4.76678 0.394955 4.5379 0.563679 4.36912L4.16368 0.769123C4.33245 0.600399 4.56133 0.505615 4.79998 0.505615C5.03863 0.505615 5.2675 0.600399 5.43628 0.769123Z" fill="black"/>
</svg>
