<svg width="18" height="18" viewBox="0 0 18 18" fill="none" xmlns="http://www.w3.org/2000/svg">
<path fill-rule="evenodd" clip-rule="evenodd" d="M2.69999 2.69995C2.93868 2.69995 3.1676 2.79477 3.33638 2.96356C3.50517 3.13234 3.59999 3.36126 3.59999 3.59995V14.4C3.59999 14.6386 3.50517 14.8676 3.33638 15.0363C3.1676 15.2051 2.93868 15.3 2.69999 15.3C2.46129 15.3 2.23237 15.2051 2.06359 15.0363C1.89481 14.8676 1.79999 14.6386 1.79999 14.4V3.59995C1.79999 3.36126 1.89481 3.13234 2.06359 2.96356C2.23237 2.79477 2.46129 2.69995 2.69999 2.69995ZM9.63629 5.66365C9.80501 5.83243 9.8998 6.0613 9.8998 6.29995C9.8998 6.5386 9.80501 6.76748 9.63629 6.93625L8.47259 8.09995H15.3C15.5387 8.09995 15.7676 8.19477 15.9364 8.36356C16.1052 8.53234 16.2 8.76126 16.2 8.99995C16.2 9.23865 16.1052 9.46756 15.9364 9.63635C15.7676 9.80513 15.5387 9.89995 15.3 9.89995H8.47259L9.63629 11.0637C9.80023 11.2334 9.89094 11.4607 9.88889 11.6967C9.88684 11.9327 9.79219 12.1584 9.62532 12.3253C9.45846 12.4922 9.23273 12.5868 8.99675 12.5889C8.76077 12.5909 8.53343 12.5002 8.36369 12.3363L5.66369 9.63625C5.49496 9.46748 5.40018 9.2386 5.40018 8.99995C5.40018 8.7613 5.49496 8.53243 5.66369 8.36365L8.36369 5.66365C8.53246 5.49493 8.76134 5.40014 8.99999 5.40014C9.23864 5.40014 9.46751 5.49493 9.63629 5.66365Z" fill="#898989"/>
</svg>
