<svg width="150" height="46" viewBox="0 0 150 46" fill="none" xmlns="http://www.w3.org/2000/svg">
<path d="M36.3886 20.0026C29.2465 15.7565 17.4657 15.366 10.6476 17.4376C9.55268 17.7701 8.39492 17.1513 8.06316 16.0553C7.7314 14.9587 8.34883 13.8004 9.44447 13.4671C17.2712 11.0885 30.2818 11.5481 38.504 16.4343C39.489 17.0194 39.8121 18.2927 39.2281 19.2772C38.6439 20.2629 37.371 20.5879 36.3886 20.0026ZM36.1547 26.2919C35.6539 27.1059 34.5908 27.361 33.7788 26.8615C27.8243 23.1973 18.7446 22.1358 11.7 24.2764C10.7865 24.5528 9.8216 24.0372 9.54422 23.1243C9.26886 22.2098 9.78419 21.2455 10.6961 20.9674C18.7435 18.5228 28.7475 19.7069 35.5864 23.9144C36.3984 24.415 36.654 25.4799 36.1547 26.2919ZM33.4435 32.3319C33.0456 32.9854 32.1952 33.1904 31.5449 32.792C26.3417 29.6085 19.7928 28.8893 12.0802 30.6531C11.3368 30.8238 10.5962 30.3573 10.4266 29.6135C10.2564 28.8695 10.7204 28.1281 11.4653 27.9583C19.9054 26.0267 27.1454 26.858 32.9855 30.4307C33.6367 30.8287 33.8417 31.6804 33.4435 32.3319ZM23.2822 0.338247C11.0454 0.338247 1.12509 10.269 1.12509 22.5194C1.12509 34.7709 11.0454 44.7014 23.2822 44.7014C35.5195 44.7014 45.4392 34.7709 45.4392 22.5194C45.4392 10.269 35.5195 0.338247 23.2822 0.338247Z" fill="#1ED760"/>
<path d="M61.4068 20.8157C57.5812 19.9023 56.8999 19.2612 56.8999 17.9147C56.8999 16.642 58.0969 15.7859 59.8764 15.7859C61.6015 15.7859 63.3118 16.4361 65.1054 17.7748C65.1596 17.8154 65.2276 17.8315 65.2946 17.8209C65.3615 17.8109 65.4205 17.7743 65.4599 17.7187L67.3279 15.0826C67.4046 14.9743 67.3837 14.8244 67.2803 14.7415C65.1459 13.0269 62.7424 12.1933 59.9331 12.1933C55.8024 12.1933 52.9171 14.6747 52.9171 18.2257C52.9171 22.0334 55.406 23.3814 59.7071 24.4221C63.3679 25.2663 63.9857 25.9734 63.9857 27.2379C63.9857 28.6387 62.7363 29.5097 60.7257 29.5097C58.4929 29.5097 56.6713 28.7567 54.6337 26.9902C54.5832 26.9467 54.5139 26.9267 54.4498 26.9303C54.3826 26.9359 54.321 26.9671 54.2781 27.0187L52.1837 29.5142C52.0958 29.6178 52.107 29.7724 52.2083 29.8619C54.5792 31.9807 57.4947 33.1 60.6411 33.1C65.0922 33.1 67.9684 30.665 67.9684 26.8966C67.9684 23.7118 66.0677 21.9505 61.4068 20.8157Z" fill="#1ED760"/>
<path d="M81.2698 25.0841C81.2698 27.7734 79.6151 29.65 77.2458 29.65C74.9034 29.65 73.1365 27.6882 73.1365 25.0841C73.1365 22.4804 74.9034 20.5183 77.2458 20.5183C79.577 20.5183 81.2698 22.438 81.2698 25.0841ZM78.0387 17.0385C76.1094 17.0385 74.5269 17.7992 73.222 19.358V17.6035C73.222 17.4649 73.1098 17.3521 72.9714 17.3521H69.5461C69.4078 17.3521 69.2958 17.4649 69.2958 17.6035V37.099C69.2958 37.2375 69.4078 37.3503 69.5461 37.3503H72.9714C73.1098 37.3503 73.222 37.2375 73.222 37.099V30.9453C74.5272 32.4117 76.1099 33.1279 78.0387 33.1279C81.6235 33.1279 85.2526 30.3652 85.2526 25.0841C85.2526 19.8019 81.6235 17.0385 78.0387 17.0385Z" fill="#1ED760"/>
<path d="M94.5548 29.6782C92.0992 29.6782 90.2479 27.703 90.2479 25.0841C90.2479 22.4543 92.0352 20.5458 94.4982 20.5458C96.9696 20.5458 98.8334 22.5209 98.8334 25.1415C98.8334 27.7711 97.0339 29.6782 94.5548 29.6782ZM94.5548 17.0385C89.9381 17.0385 86.3212 20.5975 86.3212 25.1415C86.3212 29.6363 89.9132 33.1579 94.4982 33.1579C99.1313 33.1579 102.759 29.6109 102.759 25.0841C102.759 20.5725 99.1561 17.0385 94.5548 17.0385Z" fill="#1ED760"/>
<path d="M112.618 17.3521H108.849V13.4939C108.849 13.3554 108.737 13.2428 108.599 13.2428H105.174C105.035 13.2428 104.922 13.3554 104.922 13.4939V17.3521H103.275C103.137 17.3521 103.026 17.4649 103.026 17.6035V20.5507C103.026 20.6891 103.137 20.8019 103.275 20.8019H104.922V28.4282C104.922 31.5101 106.454 33.0725 109.476 33.0725C110.705 33.0725 111.724 32.8185 112.685 32.2731C112.763 32.2295 112.812 32.1452 112.812 32.0556V29.2491C112.812 29.1624 112.767 29.0808 112.693 29.0353C112.618 28.9885 112.525 28.9861 112.449 29.0239C111.789 29.3563 111.151 29.5097 110.438 29.5097C109.339 29.5097 108.849 29.0104 108.849 27.8907V20.8019H112.618C112.756 20.8019 112.868 20.6891 112.868 20.5507V17.6035C112.868 17.4649 112.756 17.3521 112.618 17.3521Z" fill="#1ED760"/>
<path d="M125.751 17.3672V16.8933C125.751 15.4993 126.285 14.8776 127.483 14.8776C128.197 14.8776 128.77 15.0196 129.413 15.2341C129.492 15.259 129.574 15.2466 129.639 15.1992C129.705 15.1518 129.742 15.0757 129.742 14.9952V12.1054C129.742 11.9949 129.671 11.8972 129.565 11.8649C128.887 11.6628 128.018 11.4551 126.718 11.4551C123.554 11.4551 121.882 13.2388 121.882 16.6115V17.3373H120.236C120.098 17.3373 119.985 17.4498 119.985 17.5884V20.5507C119.985 20.6891 120.098 20.8019 120.236 20.8019H121.882V32.565C121.882 32.7036 121.993 32.8161 122.131 32.8161H125.557C125.695 32.8161 125.808 32.7036 125.808 32.565V20.8019H129.006L133.905 32.5619C133.349 33.7975 132.802 34.0434 132.056 34.0434C131.452 34.0434 130.817 33.8629 130.167 33.507C130.106 33.4732 130.034 33.4678 129.967 33.4882C129.902 33.5114 129.847 33.56 129.819 33.6238L128.658 36.1737C128.603 36.2942 128.65 36.4357 128.766 36.4982C129.978 37.1553 131.072 37.4359 132.424 37.4359C134.954 37.4359 136.352 36.2561 137.584 33.0829L143.527 17.7094C143.557 17.6321 143.548 17.5449 143.501 17.476C143.454 17.4082 143.378 17.3672 143.295 17.3672H139.729C139.622 17.3672 139.526 17.435 139.491 17.5354L135.838 27.9816L131.837 17.5285C131.8 17.4313 131.707 17.3672 131.603 17.3672H125.751Z" fill="#1ED760"/>
<path d="M118.138 17.3521H114.712C114.574 17.3521 114.461 17.4649 114.461 17.6034V32.565C114.461 32.7036 114.574 32.8161 114.712 32.8161H118.138C118.276 32.8161 118.388 32.7036 118.388 32.565V17.6034C118.388 17.4649 118.276 17.3521 118.138 17.3521Z" fill="#1ED760"/>
<path d="M116.442 10.5397C115.085 10.5397 113.984 11.6398 113.984 12.9981C113.984 14.3574 115.085 15.4585 116.442 15.4585C117.799 15.4585 118.899 14.3574 118.899 12.9981C118.899 11.6398 117.799 10.5397 116.442 10.5397Z" fill="#1ED760"/>
<path d="M146.592 18.8404H145.964V19.6416H146.592C146.905 19.6416 147.092 19.4882 147.092 19.2408C147.092 18.9801 146.905 18.8404 146.592 18.8404ZM146.999 19.9834L147.681 20.9392H147.106L146.492 20.0625H145.964V20.9392H145.483V18.4058H146.611C147.199 18.4058 147.586 18.707 147.586 19.2139C147.586 19.6291 147.346 19.8829 146.999 19.9834ZM146.464 17.5629C145.23 17.5629 144.295 18.5454 144.295 19.7489C144.295 20.9516 145.223 21.9211 146.452 21.9211C147.686 21.9211 148.622 20.9392 148.622 19.7351C148.622 18.5324 147.693 17.5629 146.464 17.5629ZM146.452 22.1625C145.096 22.1625 144.041 21.0725 144.041 19.7489C144.041 18.4251 145.11 17.3227 146.464 17.3227C147.82 17.3227 148.875 18.4127 148.875 19.7351C148.875 21.0589 147.807 22.1625 146.452 22.1625Z" fill="#1ED760"/>
</svg>
