<svg width="20" height="21" viewBox="0 0 20 21" fill="none" xmlns="http://www.w3.org/2000/svg">
<rect y="0.5" width="20" height="20" rx="4" fill="black"/>
<path d="M2.00301 6.384L10 10.382L17.997 6.384C17.9674 5.87444 17.7441 5.39549 17.3728 5.04523C17.0016 4.69497 16.5104 4.49991 16 4.5H4.00001C3.48959 4.49991 2.99845 4.69497 2.62718 5.04523C2.25591 5.39549 2.03261 5.87444 2.00301 6.384Z" fill="white"/>
<path d="M18 8.61804L10 12.618L2 8.61804V14.5C2 15.0305 2.21071 15.5392 2.58579 15.9143C2.96086 16.2893 3.46957 16.5 4 16.5H16C16.5304 16.5 17.0391 16.2893 17.4142 15.9143C17.7893 15.5392 18 15.0305 18 14.5V8.61804Z" fill="white"/>
</svg>
