<svg width="6" height="10" viewBox="0 0 6 10" fill="none" xmlns="http://www.w3.org/2000/svg">
<path fill-rule="evenodd" clip-rule="evenodd" d="M0.293031 9.70106C0.10556 9.51353 0.000244141 9.25922 0.000244141 8.99406C0.000244141 8.7289 0.10556 8.47459 0.293031 8.28706L3.58603 4.99406L0.293031 1.70106C0.110873 1.51246 0.0100779 1.25986 0.0123563 0.997658C0.0146347 0.735462 0.119804 0.484649 0.305212 0.299241C0.49062 0.113833 0.741433 0.00866388 1.00363 0.00638546C1.26583 0.00410704 1.51843 0.104902 1.70703 0.28706L5.70703 4.28706C5.8945 4.47459 5.99982 4.7289 5.99982 4.99406C5.99982 5.25922 5.8945 5.51353 5.70703 5.70106L1.70703 9.70106C1.5195 9.88853 1.26519 9.99385 1.00003 9.99385C0.734866 9.99385 0.480558 9.88853 0.293031 9.70106Z" fill="black"/>
</svg>
