<svg width="19" height="18" viewBox="0 0 19 18" fill="none" xmlns="http://www.w3.org/2000/svg">
<path fill-rule="evenodd" clip-rule="evenodd" d="M8.01237 3.60001C7.05759 3.60001 6.14191 3.97929 5.46678 4.65442C4.79165 5.32955 4.41237 6.24523 4.41237 7.20001C4.41237 8.15479 4.79165 9.07046 5.46678 9.74559C6.14191 10.4207 7.05759 10.8 8.01237 10.8C8.96715 10.8 9.88282 10.4207 10.558 9.74559C11.2331 9.07046 11.6124 8.15479 11.6124 7.20001C11.6124 6.24523 11.2331 5.32955 10.558 4.65442C9.88282 3.97929 8.96715 3.60001 8.01237 3.60001ZM2.61237 7.20001C2.61226 6.35014 2.81274 5.51225 3.19752 4.75447C3.5823 3.9967 4.1405 3.34044 4.82672 2.83908C5.51295 2.33771 6.30782 2.0054 7.1467 1.86916C7.98557 1.73291 8.84476 1.7966 9.65438 2.05502C10.464 2.31345 11.2012 2.75932 11.806 3.35637C12.4108 3.95343 12.8662 4.68481 13.135 5.49103C13.4039 6.29724 13.4787 7.15554 13.3533 7.9961C13.2279 8.83667 12.9058 9.63577 12.4134 10.3284L16.7487 14.6637C16.9126 14.8334 17.0033 15.0608 17.0013 15.2968C16.9992 15.5327 16.9046 15.7585 16.7377 15.9253C16.5708 16.0922 16.3451 16.1869 16.1091 16.1889C15.8731 16.191 15.6458 16.1002 15.4761 15.9363L11.1417 11.6019C10.3338 12.1764 9.38338 12.5174 8.39457 12.5875C7.40577 12.6577 6.41673 12.4543 5.53584 11.9997C4.65494 11.5451 3.91618 10.8567 3.40052 10.0101C2.88485 9.16351 2.61217 8.1913 2.61237 7.20001Z" fill="#9C9C9F"/>
</svg>
