<svg width="18" height="18" viewBox="0 0 18 18" fill="none" xmlns="http://www.w3.org/2000/svg">
<path fill-rule="evenodd" clip-rule="evenodd" d="M15.9364 8.3637C16.1051 8.53247 16.1999 8.76135 16.1999 9C16.1999 9.23865 16.1051 9.46752 15.9364 9.6363L9.63635 15.9363C9.46758 16.105 9.2387 16.1998 9.00005 16.1998C8.7614 16.1998 8.53252 16.105 8.36375 15.9363L2.06375 9.6363C1.98005 9.55283 1.91367 9.45366 1.86841 9.34446C1.82316 9.23526 1.79993 9.1182 1.80005 9V4.5C1.80005 3.78391 2.08451 3.09716 2.59086 2.59081C3.09721 2.08446 3.78396 1.8 4.50005 1.8H9.00005C9.23045 1.8 9.46085 1.8882 9.63635 2.0637L15.9364 8.3637ZM4.50005 5.4C4.73874 5.4 4.96766 5.30518 5.13645 5.1364C5.30523 4.96761 5.40005 4.73869 5.40005 4.5C5.40005 4.2613 5.30523 4.03239 5.13645 3.8636C4.96766 3.69482 4.73874 3.6 4.50005 3.6C4.26135 3.6 4.03244 3.69482 3.86365 3.8636C3.69487 4.03239 3.60005 4.2613 3.60005 4.5C3.60005 4.73869 3.69487 4.96761 3.86365 5.1364C4.03244 5.30518 4.26135 5.4 4.50005 5.4Z" fill="#C1D0D7"/>
</svg>
