<svg width="18" height="19" viewBox="0 0 18 19" fill="none" xmlns="http://www.w3.org/2000/svg">
<g clip-path="url(#clip0_105_507)">
<path d="M18 9.5C18 11.8869 17.0518 14.1761 15.364 15.864C13.6761 17.5518 11.3869 18.5 9 18.5C6.61305 18.5 4.32387 17.5518 2.63604 15.864C0.948212 14.1761 0 11.8869 0 9.5C0 7.11305 0.948212 4.82387 2.63604 3.13604C4.32387 1.44821 6.61305 0.5 9 0.5C11.3869 0.5 13.6761 1.44821 15.364 3.13604C17.0518 4.82387 18 7.11305 18 9.5ZM9.32288 7.14425C8.44687 7.50875 6.69712 8.2625 4.07363 9.4055C3.64838 9.57425 3.42525 9.74 3.40425 9.90275C3.3705 10.1761 3.71363 10.2841 4.1805 10.4315L4.37738 10.4934C4.83638 10.643 5.45512 10.8174 5.77575 10.8241C6.06825 10.8316 6.39375 10.7116 6.75225 10.4641C9.204 8.80963 10.4693 7.97337 10.548 7.95537C10.6043 7.94187 10.683 7.92613 10.7347 7.97338C10.7865 8.02063 10.782 8.10838 10.7764 8.132C10.7426 8.27712 9.396 9.52812 8.69963 10.1761C8.4825 10.3786 8.32837 10.5215 8.29688 10.5541C8.22753 10.625 8.15702 10.6948 8.08537 10.7634C7.65787 11.1751 7.33838 11.4834 8.10225 11.9874C8.47013 12.2304 8.76488 12.4295 9.0585 12.6297C9.378 12.848 9.6975 13.0651 10.1115 13.3374C10.2165 13.4064 10.3177 13.4765 10.4153 13.5477C10.7876 13.8132 11.124 14.0518 11.5369 14.0135C11.7776 13.991 12.0262 13.766 12.1523 13.091C12.4504 11.4969 13.0365 8.04425 13.1715 6.62113C13.18 6.50283 13.1751 6.38395 13.1569 6.26675C13.146 6.17226 13.1002 6.08522 13.0286 6.02262C12.9261 5.95224 12.8042 5.91566 12.6799 5.918C12.3424 5.92362 11.8215 6.10475 9.32288 7.14425Z" fill="white"/>
</g>
<defs>
<clipPath id="clip0_105_507">
<rect width="18" height="18" fill="white" transform="translate(0 0.5)"/>
</clipPath>
</defs>
</svg>
