<svg width="16" height="16" viewBox="0 0 16 16" fill="none" xmlns="http://www.w3.org/2000/svg">
<path d="M10.6667 4.66667C10.6667 5.37391 10.3858 6.05219 9.88566 6.55229C9.38556 7.05238 8.70728 7.33333 8.00004 7.33333C7.2928 7.33333 6.61452 7.05238 6.11442 6.55229C5.61433 6.05219 5.33337 5.37391 5.33337 4.66667C5.33337 3.95942 5.61433 3.28115 6.11442 2.78105C6.61452 2.28095 7.2928 2 8.00004 2C8.70728 2 9.38556 2.28095 9.88566 2.78105C10.3858 3.28115 10.6667 3.95942 10.6667 4.66667ZM8.00004 9.33333C6.76236 9.33333 5.57538 9.825 4.70021 10.7002C3.82504 11.5753 3.33337 12.7623 3.33337 14H12.6667C12.6667 12.7623 12.175 11.5753 11.2999 10.7002C10.4247 9.825 9.23772 9.33333 8.00004 9.33333Z" stroke="#898989" stroke-width="2" stroke-linecap="round" stroke-linejoin="round"/>
</svg>
