<svg width="18" height="18" viewBox="0 0 18 18" fill="none" xmlns="http://www.w3.org/2000/svg">
<path fill-rule="evenodd" clip-rule="evenodd" d="M3.8637 3.86369C4.03247 3.69496 4.26135 3.60018 4.5 3.60018C4.73864 3.60018 4.96752 3.69496 5.1363 3.86369L9 7.72739L12.8637 3.86369C12.9467 3.77773 13.046 3.70916 13.1558 3.662C13.2656 3.61483 13.3837 3.59 13.5032 3.58896C13.6227 3.58792 13.7412 3.6107 13.8519 3.65595C13.9625 3.7012 14.0629 3.76803 14.1475 3.85253C14.232 3.93704 14.2988 4.03752 14.344 4.14813C14.3893 4.25874 14.4121 4.37725 14.411 4.49675C14.41 4.61625 14.3852 4.73435 14.338 4.84415C14.2908 4.95396 14.2223 5.05327 14.1363 5.13629L10.2726 8.99999L14.1363 12.8637C14.3002 13.0334 14.391 13.2608 14.3889 13.4967C14.3869 13.7327 14.2922 13.9585 14.1253 14.1253C13.9585 14.2922 13.7327 14.3868 13.4968 14.3889C13.2608 14.3909 13.0334 14.3002 12.8637 14.1363L9 10.2726L5.1363 14.1363C4.96655 14.3002 4.73921 14.3909 4.50324 14.3889C4.26726 14.3868 4.04153 14.2922 3.87466 14.1253C3.70779 13.9585 3.61314 13.7327 3.61109 13.4967C3.60904 13.2608 3.69975 13.0334 3.8637 12.8637L7.7274 8.99999L3.8637 5.13629C3.69497 4.96751 3.60019 4.73864 3.60019 4.49999C3.60019 4.26134 3.69497 4.03246 3.8637 3.86369Z" fill="#C4C4C4"/>
</svg>
