<svg width="18" height="19" viewBox="0 0 18 19" fill="none" xmlns="http://www.w3.org/2000/svg">
<path d="M9.05737 2.7489H9.1575C10.0823 2.75228 14.7679 2.78603 16.0312 3.12578C16.4132 3.22947 16.7612 3.43158 17.0406 3.71191C17.3199 3.99224 17.5208 4.34098 17.6231 4.72328C17.7367 5.15078 17.8166 5.71665 17.8706 6.30053L17.8819 6.41753L17.9066 6.71003L17.9156 6.82703C17.9888 7.85528 17.9977 8.81828 17.9989 9.02865V9.11303C17.9977 9.33128 17.9876 10.3595 17.9066 11.4305L17.8976 11.5487L17.8875 11.6657C17.8312 12.3092 17.748 12.9482 17.6231 13.4184C17.5208 13.8007 17.3199 14.1494 17.0406 14.4298C16.7612 14.7101 16.4132 14.9122 16.0312 15.0159C14.7262 15.3669 9.76612 15.3917 9.07875 15.3928H8.919C8.57137 15.3928 7.13363 15.386 5.62612 15.3343L5.43488 15.3275L5.337 15.323L5.14462 15.3152L4.95225 15.3073C3.7035 15.2522 2.51437 15.1633 1.9665 15.0148C1.58471 14.9112 1.23677 14.7092 0.957433 14.4291C0.678097 14.149 0.477139 13.8005 0.374625 13.4184C0.24975 12.9493 0.1665 12.3092 0.11025 11.6657L0.10125 11.5475L0.09225 11.4305C0.0364088 10.6682 0.00564223 9.90433 0 9.14003L0 9.00165C0.00225 8.75978 0.01125 7.9239 0.072 7.0014L0.079875 6.88553L0.08325 6.82703L0.09225 6.71003L0.117 6.41753L0.12825 6.30053C0.18225 5.71665 0.262125 5.14965 0.37575 4.72328C0.478092 4.34098 0.678974 3.99224 0.95832 3.71191C1.23767 3.43158 1.5857 3.22947 1.96762 3.12578C2.5155 2.97953 3.70462 2.88953 4.95337 2.83328L5.14462 2.8254L5.33812 2.81865L5.43488 2.81528L5.62725 2.8074C6.69792 2.77298 7.76903 2.75385 8.84025 2.75003L9.05737 2.7489ZM7.2 6.36015V11.7804L11.8766 9.0714L7.2 6.36015Z" fill="white"/>
</svg>
